<?xml version="1.0" ?><svg data-name="Layer 1" id="Layer_1" viewBox="0 0 512 512" xmlns="http://www.w3.org/2000/svg"><title/><path d="M466.64,231.22a5.57,5.57,0,0,0-.5-1.88,5.12,5.12,0,0,0-.39-.73,5.55,5.55,0,0,0-1.37-1.41c-.14-.1-.21-.28-.36-.37s-.11,0-.16-.05-.09-.1-.16-.13L418.8,203.2a5.72,5.72,0,0,0-5.25,0l-44.9,23.45a1.83,1.83,0,0,0-.16.13c-.05,0-.11,0-.16.05s-.22.27-.36.37a5.55,5.55,0,0,0-1.37,1.41,6.37,6.37,0,0,0-.39.73,5.34,5.34,0,0,0-.49,1.88c0,.17-.13.3-.13.47v18.62H318A62.24,62.24,0,0,0,261.69,194V142.88L303.53,121a5.67,5.67,0,0,0,3.05-5V67.38a4.21,4.21,0,0,0-.12-.48A5.56,5.56,0,0,0,306,65a5.18,5.18,0,0,0-.4-.73,5.64,5.64,0,0,0-1.36-1.4c-.14-.11-.21-.29-.37-.38s-.1,0-.15,0-.1-.09-.16-.13l-44.9-23.44a5.68,5.68,0,0,0-5.26,0l-44.9,23.44a1.83,1.83,0,0,1-.16.13c-.05,0-.11,0-.15,0s-.23.27-.37.38a5.64,5.64,0,0,0-1.36,1.4,5.18,5.18,0,0,0-.4.73,5.56,5.56,0,0,0-.49,1.88,4.21,4.21,0,0,0-.12.48V116a5.67,5.67,0,0,0,3.05,5l41.84,21.84V194A62.24,62.24,0,0,0,194,250.31h-47.6V231.69c0-.17-.11-.3-.13-.47a5.34,5.34,0,0,0-.49-1.88,6.37,6.37,0,0,0-.39-.73A5.55,5.55,0,0,0,144,227.2c-.14-.1-.21-.28-.36-.37s-.11,0-.16-.05a1.83,1.83,0,0,0-.16-.13L98.45,203.2a5.72,5.72,0,0,0-5.25,0L48.3,226.65c-.07,0-.1.09-.16.13s-.11,0-.16.05-.22.27-.36.37a5.55,5.55,0,0,0-1.37,1.41,5.12,5.12,0,0,0-.39.73,5.57,5.57,0,0,0-.5,1.88c0,.17-.12.3-.12.47v48.62a5.71,5.71,0,0,0,3.06,5.05L93.2,308.8a5.7,5.7,0,0,0,5.25,0l44.9-23.44a5.71,5.71,0,0,0,3.06-5.05V261.69H194A62.23,62.23,0,0,0,250.31,318v51.15L208.47,391c-.06,0-.1.1-.16.14s-.11,0-.15,0-.22.27-.36.37a5.63,5.63,0,0,0-1.38,1.42,6.23,6.23,0,0,0-.39.72,5.56,5.56,0,0,0-.49,1.89c0,.17-.12.3-.12.47v48.62a5.67,5.67,0,0,0,3.05,5l44.9,23.44a5.65,5.65,0,0,0,5.26,0l44.9-23.44a5.67,5.67,0,0,0,3.05-5V396c0-.17-.1-.3-.12-.47a5.56,5.56,0,0,0-.49-1.89,6.23,6.23,0,0,0-.39-.72,5.63,5.63,0,0,0-1.38-1.42c-.14-.1-.21-.28-.36-.37s-.1,0-.15,0-.1-.1-.16-.14l-41.84-21.83V318A62.23,62.23,0,0,0,318,261.69h47.6v18.62a5.71,5.71,0,0,0,3.06,5.05l44.9,23.44a5.7,5.7,0,0,0,5.25,0l44.9-23.44a5.71,5.71,0,0,0,3.06-5.05V231.69C466.76,231.52,466.65,231.39,466.64,231.22ZM95.82,214.66l32.61,17-32.61,17-32.6-17Zm-39.2,26.42,33.52,17.49v35.8l-33.52-17.5ZM135,276.87l-33.52,17.5v-35.8L135,241.08ZM295.21,112.55l-33.52,17.5V94.26l33.52-17.5ZM256,50.35l32.6,17L256,84.4l-32.6-17ZM216.79,76.76l33.52,17.5v35.79l-33.52-17.5ZM256,413l-32.6-17L256,379l32.6,17Zm-39.21-7.64,33.52,17.5v35.79l-33.52-17.49Zm78.42,35.8-33.52,17.49V422.89l33.52-17.5ZM256,307.18A51.18,51.18,0,1,1,307.18,256,51.23,51.23,0,0,1,256,307.18Zm160.18-92.52,32.6,17-32.6,17-32.61-17ZM377,241.08l33.52,17.49v35.8L377,276.87Zm78.41,35.79-33.52,17.5v-35.8l33.52-17.49Z"/><path d="M256,221.48A34.57,34.57,0,0,0,221.47,256a5.69,5.69,0,0,0,11.38,0A23.17,23.17,0,0,1,256,232.86a5.69,5.69,0,0,0,0-11.38Z"/></svg>