<?xml version="1.0" ?><svg data-name="Layer 1" id="Layer_1" viewBox="0 0 512 512" xmlns="http://www.w3.org/2000/svg"><title/><path d="M256,262.1a28.11,28.11,0,0,0-28.07,28.08,5.69,5.69,0,0,0,11.38,0A16.71,16.71,0,0,1,256,273.48a5.69,5.69,0,1,0,0-11.38Z"/><path d="M466.66,284.49H417a35,35,0,0,0-69.08,0h-34.6a57.55,57.55,0,0,0-51.59-51.59V84.11h56.7a5.69,5.69,0,0,0,0-11.38H256a5.69,5.69,0,0,0-5.69,5.69V232.9a57.56,57.56,0,0,0-51.59,51.59H164.13a35,35,0,0,0-69.08,0H45.34a5.69,5.69,0,0,0,0,11.38H95.05a35,35,0,0,0,28.85,28.84V396.8a5.69,5.69,0,0,0,5.69,5.69H192a5.69,5.69,0,0,0,0-11.38h-56.7v-66.4a35,35,0,0,0,28.85-28.84h34.59a57.53,57.53,0,0,0,114.56,0h34.6a35,35,0,0,0,28.85,28.84V433.58a5.69,5.69,0,0,0,5.69,5.69H444.8a5.69,5.69,0,0,0,0-11.38H388.11V324.71A35,35,0,0,0,417,295.87h49.7a5.69,5.69,0,0,0,0-11.38ZM129.9,313.88c-.11,0-.2-.07-.31-.07a3,3,0,0,0-.32.07,23.75,23.75,0,1,1,.63,0ZM256,336.65a46.48,46.48,0,1,1,46.48-46.47A46.52,46.52,0,0,1,256,336.65Zm126.74-22.77c-.11,0-.21-.07-.32-.07s-.21.06-.32.07a23.73,23.73,0,1,1,.64,0Z"/><path d="M318.39,105h-31.2a5.69,5.69,0,1,0,0,11.37h31.2a5.69,5.69,0,1,0,0-11.37Z"/><path d="M413.62,395.66a5.69,5.69,0,1,0,0,11.37H444.8a5.69,5.69,0,1,0,0-11.37Z"/><path d="M160.78,358.87a5.69,5.69,0,1,0,0,11.38H192a5.69,5.69,0,0,0,0-11.38Z"/></svg>