<?xml version="1.0" ?><svg data-name="Layer 1" id="Layer_1" viewBox="0 0 512 512" xmlns="http://www.w3.org/2000/svg"><title/><path d="M451.75,275.76H409.92V208.69a5.69,5.69,0,0,0-5.69-5.69H261.47V136.85h78.06a5.69,5.69,0,0,0,5.69-5.69V64.55a5.68,5.68,0,0,0-5.69-5.68H172.05a5.68,5.68,0,0,0-5.69,5.68v66.61a5.69,5.69,0,0,0,5.69,5.69h78V203H107.35a5.69,5.69,0,0,0-5.69,5.69v67.14H60.25a5.68,5.68,0,0,0-5.69,5.68V447.45a5.68,5.68,0,0,0,5.69,5.68h94.21a5.68,5.68,0,0,0,5.69-5.68V281.51a5.68,5.68,0,0,0-5.69-5.68H113V214.37H250.1v61.46H208.68a5.68,5.68,0,0,0-5.69,5.68V447.45a5.68,5.68,0,0,0,5.69,5.68H302.9a5.68,5.68,0,0,0,5.68-5.68V281.51a5.68,5.68,0,0,0-5.68-5.68H261.47V214.37H398.54v61.39h-41a5.69,5.69,0,0,0-5.69,5.69V447.38a5.69,5.69,0,0,0,5.69,5.69h94.2a5.69,5.69,0,0,0,5.69-5.69V281.45A5.69,5.69,0,0,0,451.75,275.76ZM333.84,125.47H244.33V70.24h89.51Zm-156.11,0V70.24H233v55.23Zm-29,316.29H65.94V324.67h82.83Zm0-128.47H65.94V287.2h82.83ZM297.21,441.76H214.37V324.67h82.84Zm0-128.47H214.37V287.2h82.84Zm66-26.15H403.9c.11,0,.21.06.33.06s.21-.06.33-.06h41.5v26.09H363.24Zm82.82,154.55H363.24V324.6h82.82Z"/></svg>